<?xml version="1.0" encoding="iso-8859-1"?>
<!-- Generator: Adobe Illustrator 19.0.0, SVG Export Plug-In . SVG Version: 6.00 Build 0)  -->
<svg version="1.1" id="Capa_1" xmlns="http://www.w3.org/2000/svg" xmlns:xlink="http://www.w3.org/1999/xlink" x="0px" y="0px"
	 viewBox="0 0 400 400" style="enable-background:new 0 0 400 400;" xml:space="preserve">
<g>
	<g>
		<polygon points="96,52 96,89.336 80,110.728 64,89.336 64,52 48,52 48,94.664 80,137.44 112,94.664 112,52 		"/>
	</g>
</g>
<g>
	<g>
		<path d="M128,52v80h64V52H128z M176,116h-32V68h32V116z"/>
	</g>
</g>
<g>
	<g>
		<polygon points="208,52 208,68 232,68 232,132 248,132 248,68 272,68 272,52 		"/>
	</g>
</g>
<g>
	<g>
		<polygon points="352,68 352,52 288,52 288,132 352,132 352,116 304,116 304,100 352,100 352,84 304,84 304,68 		"/>
	</g>
</g>
<g>
	<g>
		<path d="M0,4v176h176v216h16V180h16v216h16V180h176V4H0z M384,164H224h-48H16V20h368V164z"/>
	</g>
</g>
<g>
</g>
<g>
</g>
<g>
</g>
<g>
</g>
<g>
</g>
<g>
</g>
<g>
</g>
<g>
</g>
<g>
</g>
<g>
</g>
<g>
</g>
<g>
</g>
<g>
</g>
<g>
</g>
<g>
</g>
</svg>
